<?xml version="1.0" encoding="UTF-8"?>
<!-- Generated by Pixelmator Pro 3.8 -->
<svg width="85" height="85" viewBox="0 0 85 85" xmlns="http://www.w3.org/2000/svg">
    <path id="Path-copy" fill="#000000" fill-rule="evenodd" stroke="none" d="M 39.917999 9.109001 C 38.671902 8.390251 37.8321 7.042603 37.8321 5.499603 C 37.8321 3.198799 39.699299 1.331604 42.000099 1.331604 C 44.3009 1.331604 46.168098 3.198799 46.168098 5.499603 C 46.168098 7.042603 45.328259 8.390198 44.082199 9.109001 L 44.082199 13.905899 C 46.242401 14.058243 48.34 14.444962 50.343899 15.042603 L 57.804802 7.581703 L 63.390701 7.581703 C 64.109451 6.3395 65.4571 5.499702 67.000099 5.499702 C 69.300903 5.499702 71.168098 7.366898 71.168098 9.667702 C 71.168098 11.968498 69.300903 13.831802 67.000099 13.831802 C 65.4571 13.831802 64.109497 12.995857 63.390701 11.749802 L 59.531303 11.749802 L 54.593796 16.683395 C 60.585999 19.558395 65.441803 24.413902 68.316803 30.406403 L 73.250397 25.468903 L 73.250397 21.609497 C 72.004303 20.890747 71.168404 19.543098 71.168404 18.000099 C 71.168404 15.699303 73.0317 13.8321 75.332497 13.8321 C 77.633301 13.8321 79.500504 15.699303 79.500504 18.000099 C 79.500504 19.543098 78.66066 20.890701 77.418503 21.609497 L 77.418503 27.195404 L 69.957603 34.656296 C 70.55526 36.660202 70.941978 38.757904 71.094299 40.917999 L 75.891197 40.917999 C 76.609947 39.671906 77.957603 38.8321 79.500603 38.8321 C 81.801399 38.8321 83.668602 40.699295 83.668602 43.000099 C 83.668602 45.300903 81.801399 47.168098 79.500603 47.168098 C 77.957603 47.168098 76.610001 46.328262 75.891197 45.082199 L 71.094299 45.082199 C 70.941963 47.242401 70.555237 49.339996 69.957603 51.343903 L 77.418503 58.804802 L 77.418503 64.390701 C 78.660698 65.109451 79.500504 66.4571 79.500504 68.000099 C 79.500504 70.300903 77.633301 72.168098 75.332497 72.168098 C 73.0317 72.168098 71.168404 70.300903 71.168404 68.000099 C 71.168404 66.4571 72.004341 65.109497 73.250397 64.390701 L 73.250397 60.531303 L 68.316803 55.5938 C 65.441803 61.585999 60.586304 66.441803 54.593796 69.316803 L 59.531303 74.250397 L 63.390701 74.250397 C 64.109451 73.004303 65.4571 72.168404 67.000099 72.168404 C 69.300903 72.168404 71.168098 74.0317 71.168098 76.332497 C 71.168098 78.633301 69.300903 80.500504 67.000099 80.500504 C 65.4571 80.500504 64.109497 79.66066 63.390701 78.418503 L 57.804802 78.418503 L 50.343899 70.957603 C 48.34 71.55526 46.242298 71.941978 44.082199 72.094299 L 44.082199 76.891197 C 45.3283 77.609947 46.168098 78.957603 46.168098 80.500603 C 46.168098 82.801399 44.3009 84.668602 42.000099 84.668602 C 39.699299 84.668602 37.8321 82.801399 37.8321 80.500603 C 37.8321 78.957603 38.67194 77.610001 39.917999 76.891197 L 39.917999 72.094299 C 37.757801 71.941963 35.660198 71.555237 33.6563 70.957603 L 26.1954 78.418503 L 20.609501 78.418503 C 19.890751 79.660698 18.5431 80.500504 17.000099 80.500504 C 14.699301 80.500504 12.8321 78.633301 12.8321 76.332497 C 12.8321 74.0317 14.699301 72.168404 17.000099 72.168404 C 18.5431 72.168404 19.890701 73.004341 20.609501 74.250397 L 24.468899 74.250397 L 29.406399 69.316803 C 23.4142 66.441803 18.558399 61.586304 15.683399 55.5938 L 10.7498 60.531303 L 10.7498 64.390701 C 11.995899 65.109451 12.8318 66.4571 12.8318 68.000099 C 12.8318 70.300903 10.9685 72.168098 8.6677 72.168098 C 6.366901 72.168098 4.499699 70.300903 4.499699 68.000099 C 4.499699 66.4571 5.339539 65.109497 6.581699 64.390701 L 6.581699 58.804802 L 14.042601 51.343903 C 13.444941 49.339996 13.05822 47.242294 12.905899 45.082199 L 8.108999 45.082199 C 7.390251 46.3283 6.042599 47.168098 4.499599 47.168098 C 2.1988 47.168098 0.3316 45.300903 0.3316 43.000099 C 0.3316 40.699295 2.1988 38.8321 4.499599 38.8321 C 6.042599 38.8321 7.3902 39.671936 8.108999 40.917999 L 12.905899 40.917999 C 13.058241 38.757797 13.44496 36.660202 14.042601 34.656296 L 6.581699 27.195404 L 6.581699 21.609497 C 5.3395 20.890747 4.499699 19.543098 4.499699 18.000099 C 4.499699 15.699303 6.366901 13.8321 8.6677 13.8321 C 10.9685 13.8321 12.8318 15.699303 12.8318 18.000099 C 12.8318 19.543098 11.995859 20.890701 10.7498 21.609497 L 10.7498 25.468903 L 15.683399 30.406403 C 18.558399 24.4142 23.413902 19.558395 29.406399 16.683395 L 24.468899 11.749802 L 20.609501 11.749802 C 19.890751 12.995895 18.5431 13.831802 17.000099 13.831802 C 14.699301 13.831802 12.8321 11.968498 12.8321 9.667702 C 12.8321 7.366898 14.699301 5.499702 17.000099 5.499702 C 18.5431 5.499702 19.890701 6.339539 20.609501 7.581703 L 26.1954 7.581703 L 33.6563 15.042603 C 35.660198 14.444939 37.7579 14.05822 39.917999 13.905899 Z M 21.167999 43 C 21.167999 31.492004 30.492199 22.167999 42 22.167999 C 53.503998 22.167999 62.832001 31.492203 62.832001 43 C 62.832001 54.504002 53.503899 63.832001 42 63.832001 C 30.492001 63.832001 21.167999 54.503899 21.167999 43 Z"/>
</svg>
